<svg width="31" height="24" viewBox="0 0 31 24" fill="none" xmlns="http://www.w3.org/2000/svg">
<path d="M2.25004 10.0833C1.74171 10.0833 1.2542 10.2853 0.894753 10.6447C0.535308 11.0042 0.333374 11.4917 0.333374 12C0.333374 12.5083 0.535308 12.9958 0.894753 13.3553C1.2542 13.7147 1.74171 13.9167 2.25004 13.9167V10.0833ZM29.0834 13.9167C29.5917 13.9167 30.0792 13.7147 30.4387 13.3553C30.7981 12.9958 31 12.5083 31 12C31 11.4917 30.7981 11.0042 30.4387 10.6447C30.0792 10.2853 29.5917 10.0833 29.0834 10.0833V13.9167ZM2.25004 0.5C1.74171 0.5 1.2542 0.701934 0.894753 1.06138C0.535308 1.42082 0.333374 1.90833 0.333374 2.41667C0.333374 2.925 0.535308 3.41251 0.894753 3.77195C1.2542 4.1314 1.74171 4.33333 2.25004 4.33333V0.5ZM29.0834 4.33333C29.5917 4.33333 30.0792 4.1314 30.4387 3.77195C30.7981 3.41251 31 2.925 31 2.41667C31 1.90833 30.7981 1.42082 30.4387 1.06138C30.0792 0.701934 29.5917 0.5 29.0834 0.5V4.33333ZM2.25004 19.6667C1.74171 19.6667 1.2542 19.8686 0.894753 20.228C0.535308 20.5875 0.333374 21.075 0.333374 21.5833C0.333374 22.0917 0.535308 22.5792 0.894753 22.9386C1.2542 23.2981 1.74171 23.5 2.25004 23.5V19.6667ZM29.0834 23.5C29.5917 23.5 30.0792 23.2981 30.4387 22.9386C30.7981 22.5792 31 22.0917 31 21.5833C31 21.075 30.7981 20.5875 30.4387 20.228C30.0792 19.8686 29.5917 19.6667 29.0834 19.6667V23.5ZM2.25004 13.9167H29.0834V10.0833H2.25004V13.9167ZM2.25004 4.33333H29.0834V0.5H2.25004V4.33333ZM2.25004 23.5H29.0834V19.6667H2.25004V23.5Z" fill="white"/>
</svg>
